<svg width="36" height="36" viewBox="0 0 36 36" fill="none" xmlns="http://www.w3.org/2000/svg">
<path d="M35.3262 8.55725C35.3068 7.80975 35.2489 7.06374 35.153 6.32217C35.0236 5.67265 34.808 5.04334 34.5119 4.45094C34.2022 3.80832 33.7863 3.22256 33.2817 2.71832C32.7725 2.21968 32.1878 1.80452 31.5491 1.48816C30.9559 1.19785 30.3266 0.988079 29.6779 0.864416C28.9434 0.754394 28.2027 0.690739 27.4601 0.673828H8.55725C7.80975 0.693297 7.06374 0.751126 6.32217 0.84709C5.67265 0.976462 5.04334 1.19206 4.45094 1.48816C3.80832 1.79784 3.22256 2.21373 2.71832 2.71832C2.21968 3.22756 1.80452 3.81229 1.48816 4.45094C1.19785 5.04413 0.988079 5.67344 0.864416 6.32217C0.754394 7.05669 0.690739 7.7974 0.673828 8.53992V27.4428C0.693297 28.1903 0.751126 28.9363 0.84709 29.6779C0.976462 30.3274 1.19206 30.9567 1.48816 31.5491C1.79784 32.1917 2.21373 32.7775 2.71832 33.2817C3.22756 33.7804 3.81229 34.1955 4.45094 34.5119C5.04413 34.8022 5.67344 35.012 6.32217 35.1356C7.05669 35.2457 7.7974 35.3093 8.53992 35.3262H27.4428C28.1903 35.3068 28.9363 35.2489 29.6779 35.153C30.3274 35.0236 30.9567 34.808 31.5491 34.5119C32.1917 34.2022 32.7775 33.7863 33.2817 33.2817C33.7804 32.7725 34.1955 32.1878 34.5119 31.5491C34.8022 30.9559 35.012 30.3266 35.1356 29.6779C35.2457 28.9434 35.3093 28.2027 35.3262 27.4601V8.55725ZM18.3985 30.1284C16.3178 30.1181 14.2734 29.5817 12.4556 28.569L5.87169 30.3016L7.60431 23.8563C6.48697 21.9789 5.88899 19.8382 5.87169 17.6535C5.87859 15.1983 6.61187 12.7999 7.97918 10.7606C9.34649 8.72133 11.2867 7.13222 13.5554 6.19346C15.8241 5.2547 18.3199 5.00827 20.7284 5.48521C23.1369 5.96214 25.3504 7.14111 27.0901 8.87363C28.8298 10.6062 30.018 12.8147 30.505 15.2212C30.9919 17.6277 30.7558 20.1245 29.8265 22.3971C28.8972 24.6697 27.3162 26.6165 25.2826 27.9922C23.249 29.368 20.8537 30.1113 18.3985 30.1284ZM18.3985 7.37907C16.5616 7.40009 14.7631 7.90749 13.186 8.84961C11.609 9.79173 10.3098 11.1349 9.42061 12.7424C8.53146 14.3499 8.08416 16.1644 8.12424 18.0009C8.16433 19.8375 8.69036 21.6307 9.6488 23.1979L9.89137 23.5964L8.8518 27.3908L12.8022 26.3166L13.1833 26.5418C14.7593 27.4701 16.5522 27.9662 18.3812 27.9799C21.1383 27.9799 23.7825 26.8847 25.7321 24.9351C27.6817 22.9855 28.7769 20.3413 28.7769 17.5842C28.7769 14.8271 27.6817 12.1829 25.7321 10.2333C23.7825 8.28374 21.1383 7.18848 18.3812 7.18848L18.3985 7.37907ZM24.4627 22.141C24.2358 22.5195 23.9319 22.8462 23.5708 23.0999C23.2096 23.3536 22.7993 23.5286 22.3662 23.6137C21.7192 23.732 21.053 23.6904 20.4257 23.4924C19.8355 23.3079 19.2569 23.088 18.6931 22.834C16.5511 21.7592 14.7244 20.1474 13.3913 18.156C12.6668 17.2333 12.2273 16.1194 12.1264 14.9506C12.1161 14.4651 12.208 13.9829 12.396 13.5351C12.5841 13.0874 12.8641 12.6842 13.218 12.3517C13.3222 12.2335 13.4501 12.1385 13.5934 12.0728C13.7366 12.0072 13.8921 11.9723 14.0497 11.9705H14.5348C14.7254 11.9705 14.9853 11.9705 15.2278 12.5076C15.4704 13.0447 16.1115 14.6561 16.1981 14.812C16.2407 14.8951 16.2629 14.9872 16.2629 15.0806C16.2629 15.174 16.2407 15.266 16.1981 15.3491C16.1215 15.5374 16.0163 15.7127 15.8862 15.8689C15.7303 16.0595 15.557 16.2847 15.4184 16.4233C15.2798 16.562 15.1066 16.7352 15.2798 17.0471C15.7512 17.8427 16.3348 18.5663 17.0124 19.1955C17.7504 19.8476 18.5942 20.3691 19.5074 20.7376C19.8193 20.8935 20.0099 20.8762 20.1831 20.7376C20.3564 20.599 20.9628 19.8366 21.1707 19.5247C21.3786 19.2129 21.5866 19.2648 21.8638 19.3688C22.141 19.4728 23.683 20.2178 23.9949 20.3737C24.3068 20.5297 24.4974 20.599 24.584 20.7376C24.6591 21.191 24.6174 21.6562 24.4627 22.089V22.141Z" fill="#002753"/>
</svg>
