<svg width="36" height="36" viewBox="0 0 36 36" fill="none" xmlns="http://www.w3.org/2000/svg">
<path fill-rule="evenodd" clip-rule="evenodd" d="M1.60485 4.60118C0.857422 6.06861 0.857422 7.98861 0.857422 11.8286V24.1715C0.857422 28.0115 0.857422 29.9315 1.60485 31.3989C2.26226 32.6891 3.31122 33.7381 4.60142 34.3955C6.06885 35.1429 7.98885 35.1429 11.8288 35.1429H24.1717C28.0117 35.1429 29.9317 35.1429 31.3991 34.3955C32.6893 33.7381 33.7383 32.6891 34.3957 31.3989C35.1431 29.9315 35.1431 28.0115 35.1431 24.1715V11.8286C35.1431 7.98861 35.1431 6.06861 34.3957 4.60118C33.7383 3.31098 32.6893 2.26201 31.3991 1.60461C29.9317 0.857178 28.0117 0.857178 24.1717 0.857178H11.8288C7.98885 0.857178 6.06885 0.857178 4.60142 1.60461C3.31122 2.26201 2.26226 3.31098 1.60485 4.60118ZM7.99914 12.2863V27.9995H12.2848V12.2863H7.99914ZM7.64428 7.95432C7.64428 9.34632 8.76542 10.4743 10.1454 10.4743C11.5271 10.4743 12.6448 9.34632 12.6448 7.95432C12.6448 6.56232 11.5254 5.43432 10.1454 5.43432C8.76542 5.43432 7.64599 6.56232 7.64599 7.95432H7.64428ZM25.1454 27.9995H29.4311V18.3446C29.4311 10.8395 21.4254 11.112 19.43 14.8063V12.2863H15.1443V27.9995H19.43V19.9937C19.43 15.5469 25.1454 15.1835 25.1454 19.9937V27.9995Z" fill="#002753"/>
</svg>
