<svg width="36" height="36" viewBox="0 0 36 36" fill="none" xmlns="http://www.w3.org/2000/svg">
<path fill-rule="evenodd" clip-rule="evenodd" d="M0.857422 11.8286C0.857422 7.98825 0.857422 6.06807 1.60481 4.60125C2.26223 3.31099 3.31123 2.26198 4.60149 1.60456C6.06832 0.857178 7.98849 0.857178 11.8288 0.857178H24.1717C28.012 0.857178 29.9322 0.857178 31.3991 1.60456C32.6893 2.26198 33.7383 3.31099 34.3957 4.60125C35.1431 6.06807 35.1431 7.98825 35.1431 11.8286V24.1715C35.1431 28.0118 35.1431 29.932 34.3957 31.3989C33.7383 32.6891 32.6893 33.738 31.3991 34.3955C29.9322 35.1429 28.012 35.1429 24.1717 35.1429H11.8288C7.98849 35.1429 6.06832 35.1429 4.60149 34.3955C3.31123 33.738 2.26223 32.6891 1.60481 31.3989C0.857422 29.932 0.857422 28.0118 0.857422 24.1715V11.8286ZM26.8691 13.889C26.8691 20.1715 22.2675 27.4286 13.8579 27.4286C11.2807 27.4286 8.87286 26.6399 6.85742 25.3034C7.21413 25.3499 7.57977 25.3684 7.94539 25.3684C10.0857 25.3684 12.0565 24.6074 13.6261 23.3268C11.6285 23.2896 9.93408 21.9161 9.35442 20.0231C9.63088 20.0788 9.91624 20.1065 10.2105 20.1065C10.6297 20.1065 11.031 20.051 11.4144 19.9396C9.32767 19.5035 7.74921 17.5731 7.74921 15.2717V15.2067C8.36454 15.5594 9.06906 15.7728 9.81815 15.8007C8.59641 14.9469 7.78488 13.4899 7.78488 11.8381C7.78488 10.9657 8.00783 10.1491 8.40021 9.44379C10.6564 12.3206 14.0274 14.223 17.8264 14.4179C17.755 14.0653 17.7104 13.7033 17.7104 13.3322C17.7104 10.7059 19.7615 8.57146 22.2853 8.57146C23.5962 8.57146 24.7823 9.14683 25.6206 10.0748C26.6639 9.86139 27.6448 9.47163 28.5279 8.92411C28.18 10.0377 27.4576 10.975 26.5124 11.5597C27.4398 11.439 28.3227 11.1884 29.1431 10.808C28.5279 11.7638 27.752 12.6083 26.8602 13.2765C26.8691 13.4806 26.8691 13.6848 26.8691 13.889Z" fill="#002753"/>
</svg>
