<svg width="36" height="36" viewBox="0 0 36 36" fill="none" xmlns="http://www.w3.org/2000/svg">
<path fill-rule="evenodd" clip-rule="evenodd" d="M1.60485 4.60118C0.857422 6.06861 0.857422 7.98861 0.857422 11.8286V24.1715C0.857422 28.0115 0.857422 29.9315 1.60485 31.3989C2.26226 32.6891 3.31122 33.7381 4.60142 34.3955C6.06885 35.1429 7.98885 35.1429 11.8288 35.1429H24.1717C28.0117 35.1429 29.9317 35.1429 31.3991 34.3955C32.6893 33.7381 33.7383 32.6891 34.3957 31.3989C35.1431 29.9315 35.1431 28.0115 35.1431 24.1715V11.8286C35.1431 7.98861 35.1431 6.06861 34.3957 4.60118C33.7383 3.31098 32.6893 2.26201 31.3991 1.60461C29.9317 0.857178 28.0117 0.857178 24.1717 0.857178H11.8288C7.98885 0.857178 6.06885 0.857178 4.60142 1.60461C3.31122 2.26201 2.26226 3.31098 1.60485 4.60118ZM19.2774 30.5143V18.9549H24.146L24.8797 14.6452H19.2774V12.6343C19.2774 11.0743 20.5083 9.79375 22.0477 9.79375H24.9448V5.48575H22.0477C18.2231 5.48575 15.1048 8.67775 15.1048 12.636V14.6452H11.0591V18.9549H15.1048V30.5143H19.2774Z" fill="#002753"/>
</svg>
