<svg width="36" height="36" viewBox="0 0 36 36" fill="none" xmlns="http://www.w3.org/2000/svg">
<g clip-path="url(#clip0_7787_22653)">
<path d="M0.857422 11.8286C0.857422 7.98861 0.857422 6.06861 1.60485 4.60118C2.26226 3.31098 3.31122 2.26201 4.60142 1.60461C6.06885 0.857178 7.98885 0.857178 11.8288 0.857178H24.1717C28.0117 0.857178 29.9317 0.857178 31.3991 1.60461C32.6893 2.26201 33.7383 3.31098 34.3957 4.60118C35.1431 6.06861 35.1431 7.98861 35.1431 11.8286V24.1715C35.1431 28.0115 35.1431 29.9315 34.3957 31.3989C33.7383 32.6891 32.6893 33.7381 31.3991 34.3955C29.9317 35.1429 28.0117 35.1429 24.1717 35.1429H11.8288C7.98885 35.1429 6.06885 35.1429 4.60142 34.3955C3.31122 33.7381 2.26226 32.6891 1.60485 31.3989C0.857422 29.9315 0.857422 28.0115 0.857422 24.1715V11.8286Z" fill="#002753"/>
<path d="M13.668 9.33317V22.3332C13.668 22.9078 13.8962 23.4589 14.3026 23.8652C14.7089 24.2716 15.26 24.4998 15.8346 24.4998H24.5013C25.0759 24.4998 25.627 24.2716 26.0334 23.8652C26.4397 23.4589 26.668 22.9078 26.668 22.3332V12.8453C26.6679 12.5567 26.6102 12.271 26.4982 12.0049C26.3862 11.7389 26.2222 11.4979 26.0158 11.2962L22.4246 7.784C22.0198 7.38822 21.4762 7.16657 20.9101 7.1665H15.8346C15.26 7.1665 14.7089 7.39478 14.3026 7.80111C13.8962 8.20743 13.668 8.75853 13.668 9.33317Z" stroke="white" stroke-width="2" stroke-linecap="round" stroke-linejoin="round"/>
<path d="M22.334 24.4999V26.6666C22.334 27.2412 22.1057 27.7923 21.6994 28.1987C21.2931 28.605 20.742 28.8333 20.1673 28.8333H11.5007C10.926 28.8333 10.3749 28.605 9.96859 28.1987C9.56226 27.7923 9.33398 27.2412 9.33398 26.6666V14.7499C9.33398 14.1753 9.56226 13.6242 9.96859 13.2179C10.3749 12.8115 10.926 12.5833 11.5007 12.5833H13.6673" stroke="white" stroke-width="2" stroke-linecap="round" stroke-linejoin="round"/>
</g>
<defs>
<clipPath id="clip0_7787_22653">
<rect width="36" height="36" fill="white"/>
</clipPath>
</defs>
</svg>
