<svg width="36" height="36" viewBox="0 0 36 36" fill="none" xmlns="http://www.w3.org/2000/svg">
<g clip-path="url(#clip0_1424_3777)">
<path fill-rule="evenodd" clip-rule="evenodd" d="M1.60485 4.60142C0.857422 6.06885 0.857422 7.98885 0.857422 11.8288V24.1717C0.857422 28.0117 0.857422 29.9317 1.60485 31.3991C2.26226 32.6893 3.31122 33.7383 4.60142 34.3957C6.06885 35.1431 7.98885 35.1431 11.8288 35.1431H24.1717C28.0117 35.1431 29.9317 35.1431 31.3991 34.3957C32.6893 33.7383 33.7383 32.6893 34.3957 31.3991C35.1431 29.9317 35.1431 28.0117 35.1431 24.1717V11.8288C35.1431 7.98885 35.1431 6.06885 34.3957 4.60142C33.7383 3.31122 32.6893 2.26226 31.3991 1.60485C29.9317 0.857422 28.0117 0.857422 24.1717 0.857422H11.8288C7.98885 0.857422 6.06885 0.857422 4.60142 1.60485C3.31122 2.26226 2.26226 3.31122 1.60485 4.60142V4.60142ZM19.2774 30.5146V18.9551H24.146L24.8797 14.6454H19.2774V12.6346C19.2774 11.0746 20.5083 9.79399 22.0477 9.79399H24.9448V5.48599H22.0477C18.2231 5.48599 15.1048 8.67799 15.1048 12.6363V14.6454H11.0591V18.9551H15.1048V30.5146H19.2774V30.5146Z" fill="white"/>
</g>
<defs>
<clipPath id="clip0_1424_3777">
<rect width="36" height="36" fill="white"/>
</clipPath>
</defs>
</svg>