<svg width="36" height="36" viewBox="0 0 36 36" fill="none" xmlns="http://www.w3.org/2000/svg">
<g clip-path="url(#clip0_1424_3778)">
<path d="M18.0003 12.8574C15.16 12.8574 12.8574 15.16 12.8574 18.0003C12.8574 20.8407 15.16 23.1431 18.0003 23.1431C20.8407 23.1431 23.1431 20.8407 23.1431 18.0003C23.1431 15.16 20.8407 12.8574 18.0003 12.8574Z" fill="white"/>
<path fill-rule="evenodd" clip-rule="evenodd" d="M1.60481 4.60149C0.857422 6.06832 0.857422 7.98849 0.857422 11.8288V24.1717C0.857422 28.012 0.857422 29.9322 1.60481 31.3991C2.26223 32.6893 3.31123 33.7383 4.60149 34.3957C6.06832 35.1431 7.98849 35.1431 11.8288 35.1431H24.1717C28.012 35.1431 29.9322 35.1431 31.3991 34.3957C32.6893 33.7383 33.7383 32.6893 34.3957 31.3991C35.1431 29.9322 35.1431 28.012 35.1431 24.1717V11.8288C35.1431 7.98849 35.1431 6.06832 34.3957 4.60149C33.7383 3.31123 32.6893 2.26222 31.3991 1.60481C29.9322 0.857422 28.012 0.857422 24.1717 0.857422H11.8288C7.98849 0.857422 6.06832 0.857422 4.60149 1.60481C3.31123 2.26222 2.26223 3.31123 1.60481 4.60149ZM28.3575 9.5717C29.3437 9.5717 30.1431 8.77221 30.1431 7.786C30.1431 6.79977 29.3437 6.00028 28.3575 6.00028C27.3713 6.00028 26.5717 6.79977 26.5717 7.786C26.5717 8.77221 27.3713 9.5717 28.3575 9.5717ZM9.42885 18.0003C9.42885 13.2664 13.2664 9.42885 18.0003 9.42885C22.7341 9.42885 26.5717 13.2664 26.5717 18.0003C26.5717 22.7341 22.7341 26.5717 18.0003 26.5717C13.2664 26.5717 9.42885 22.7341 9.42885 18.0003Z" fill="white"/>
</g>
<defs>
<clipPath id="clip0_1424_3778">
<rect width="36" height="36" fill="white"/>
</clipPath>
</defs>
</svg>
