<svg width="36" height="36" viewBox="0 0 36 36" fill="none" xmlns="http://www.w3.org/2000/svg">
<g clip-path="url(#clip0_1424_3779)">
<path fill-rule="evenodd" clip-rule="evenodd" d="M1.60485 4.60142C0.857422 6.06885 0.857422 7.98885 0.857422 11.8288V24.1717C0.857422 28.0117 0.857422 29.9317 1.60485 31.3991C2.26226 32.6893 3.31122 33.7383 4.60142 34.3957C6.06885 35.1431 7.98885 35.1431 11.8288 35.1431H24.1717C28.0117 35.1431 29.9317 35.1431 31.3991 34.3957C32.6893 33.7383 33.7383 32.6893 34.3957 31.3991C35.1431 29.9317 35.1431 28.0117 35.1431 24.1717V11.8288C35.1431 7.98885 35.1431 6.06885 34.3957 4.60142C33.7383 3.31122 32.6893 2.26226 31.3991 1.60485C29.9317 0.857422 28.0117 0.857422 24.1717 0.857422H11.8288C7.98885 0.857422 6.06885 0.857422 4.60142 1.60485C3.31122 2.26226 2.26226 3.31122 1.60485 4.60142ZM7.99914 12.2866V27.9997H12.2848V12.2866H7.99914ZM7.64428 7.95456C7.64428 9.34656 8.76542 10.4746 10.1454 10.4746C11.5271 10.4746 12.6448 9.34656 12.6448 7.95456C12.6448 6.56256 11.5254 5.43456 10.1454 5.43456C8.76542 5.43456 7.64599 6.56256 7.64599 7.95456H7.64428ZM25.1454 27.9997H29.4311V18.3449C29.4311 10.8397 21.4254 11.1123 19.43 14.8066V12.2866H15.1443V27.9997H19.43V19.994C19.43 15.5471 25.1454 15.1837 25.1454 19.994V27.9997Z" fill="white"/>
</g>
<defs>
<clipPath id="clip0_1424_3779">
<rect width="36" height="36" fill="white"/>
</clipPath>
</defs>
</svg>
