<svg width="24" height="24" viewBox="0 0 24 24" fill="none" xmlns="http://www.w3.org/2000/svg">
<mask id="path-1-inside-1_7369_5614" fill="white">
<path d="M0.0721054 22.2749L7.86307 14.4839C6.65408 12.9209 6.00008 11.01 6.00008 8.99996C6.00008 6.59397 6.93908 4.33798 8.63707 2.63699C10.3351 0.935996 12.597 0 15 0C17.403 0 19.665 0.938996 21.363 2.63699C23.064 4.33498 24 6.59397 24 8.99996C24 11.403 23.061 13.6649 21.363 15.3629C19.665 17.0639 17.406 17.9999 15 17.9999C12.99 17.9999 11.0821 17.3459 9.51906 16.1399L1.7281 23.9279C1.70525 23.9508 1.67813 23.9689 1.64827 23.9813C1.61842 23.9936 1.58641 24 1.5541 24C1.52178 24 1.48978 23.9936 1.45992 23.9813C1.43007 23.9689 1.40294 23.9508 1.3801 23.9279L0.0721054 22.6229C0.0492458 22.6001 0.0311127 22.5729 0.0187416 22.5431C0.00636864 22.5132 0 22.4812 0 22.4489C0 22.4166 0.00636864 22.3846 0.0187416 22.3547C0.0311127 22.3249 0.0492458 22.2977 0.0721054 22.2749ZM10.2481 13.7519C11.5201 15.0209 13.206 15.7199 15 15.7199C16.794 15.7199 18.48 15.0209 19.752 13.7519C21.021 12.4799 21.72 10.794 21.72 8.99996C21.72 7.20597 21.021 5.51698 19.752 4.24798C18.48 2.97899 16.794 2.27999 15 2.27999C13.206 2.27999 11.5171 2.97599 10.2481 4.24798C8.97906 5.51998 8.28007 7.20597 8.28007 8.99996C8.28007 10.794 8.97906 12.4829 10.2481 13.7519Z"/>
</mask>
<path d="M0.0721054 22.2749L7.86307 14.4839C6.65408 12.9209 6.00008 11.01 6.00008 8.99996C6.00008 6.59397 6.93908 4.33798 8.63707 2.63699C10.3351 0.935996 12.597 0 15 0C17.403 0 19.665 0.938996 21.363 2.63699C23.064 4.33498 24 6.59397 24 8.99996C24 11.403 23.061 13.6649 21.363 15.3629C19.665 17.0639 17.406 17.9999 15 17.9999C12.99 17.9999 11.0821 17.3459 9.51906 16.1399L1.7281 23.9279C1.70525 23.9508 1.67813 23.9689 1.64827 23.9813C1.61842 23.9936 1.58641 24 1.5541 24C1.52178 24 1.48978 23.9936 1.45992 23.9813C1.43007 23.9689 1.40294 23.9508 1.3801 23.9279L0.0721054 22.6229C0.0492458 22.6001 0.0311127 22.5729 0.0187416 22.5431C0.00636864 22.5132 0 22.4812 0 22.4489C0 22.4166 0.00636864 22.3846 0.0187416 22.3547C0.0311127 22.3249 0.0492458 22.2977 0.0721054 22.2749ZM10.2481 13.7519C11.5201 15.0209 13.206 15.7199 15 15.7199C16.794 15.7199 18.48 15.0209 19.752 13.7519C21.021 12.4799 21.72 10.794 21.72 8.99996C21.72 7.20597 21.021 5.51698 19.752 4.24798C18.48 2.97899 16.794 2.27999 15 2.27999C13.206 2.27999 11.5171 2.97599 10.2481 4.24798C8.97906 5.51998 8.28007 7.20597 8.28007 8.99996C8.28007 10.794 8.97906 12.4829 10.2481 13.7519Z" fill="white"/>
<path d="M7.86307 14.4839L8.65405 13.8721L9.19272 14.5685L8.57018 15.191L7.86307 14.4839ZM21.363 2.63699L20.6565 3.34472L20.6559 3.34409L21.363 2.63699ZM21.363 15.3629L20.6553 14.6564L20.6559 14.6558L21.363 15.3629ZM9.51906 16.1399L8.81209 15.4327L9.43389 14.8111L10.1299 15.3482L9.51906 16.1399ZM1.7281 23.9279L1.02078 23.221L1.02113 23.2207L1.7281 23.9279ZM1.5541 24V25V24ZM1.3801 23.9279L2.08639 23.22L2.08742 23.221L1.3801 23.9279ZM0.0721054 22.6229L-0.63419 23.3308L-0.63479 23.3302L0.0721054 22.6229ZM0.0721054 22.2749L0.779213 22.982L0.779001 22.9822L0.0721054 22.2749ZM10.2481 13.7519L9.54179 14.4599L9.54095 14.459L10.2481 13.7519ZM19.752 13.7519L20.46 14.4582L20.4583 14.4599L19.752 13.7519ZM19.752 4.24798L20.4583 3.54004L20.4591 3.54087L19.752 4.24798ZM-0.635002 21.5678L7.15596 13.7768L8.57018 15.191L0.779213 22.982L-0.635002 21.5678ZM7.07208 15.0958C5.72662 13.3564 5.00008 11.2298 5.00008 8.99996H7.00008C7.00008 10.7901 7.58153 12.4855 8.65405 13.8721L7.07208 15.0958ZM5.00008 8.99996C5.00008 6.32758 6.04524 3.81794 7.92934 1.93051L9.3448 3.34347C7.83291 4.85803 7.00008 6.86036 7.00008 8.99996H5.00008ZM7.92934 1.93051C9.81533 0.0411856 12.3321 -1 15 -1V1C12.862 1 10.8548 1.83081 9.3448 3.34347L7.92934 1.93051ZM15 -1C17.6687 -1 20.1849 0.0446968 22.0701 1.92988L20.6559 3.34409C19.1451 1.83329 17.1373 1 15 1V-1ZM22.0695 1.92926C23.9587 3.81512 25 6.32885 25 8.99996H23C23 6.85909 22.1693 4.85484 20.6565 3.34472L22.0695 1.92926ZM25 8.99996C25 11.6687 23.9553 14.1849 22.0701 16.07L20.6559 14.6558C22.1667 13.145 23 11.1372 23 8.99996H25ZM22.0707 16.0694C20.1849 17.9586 17.6711 18.9999 15 18.9999V16.9999C17.1409 16.9999 19.1452 16.1692 20.6553 14.6564L22.0707 16.0694ZM15 18.9999C12.7699 18.9999 10.6469 18.2732 8.90818 16.9316L10.1299 15.3482C11.5172 16.4186 13.2102 16.9999 15 16.9999V18.9999ZM10.226 16.8472L2.43507 24.6351L1.02113 23.2207L8.81209 15.4327L10.226 16.8472ZM2.43541 24.6348C2.31972 24.7506 2.18233 24.8424 2.03109 24.9051L1.26545 23.0574C1.17392 23.0954 1.09079 23.151 1.02078 23.221L2.43541 24.6348ZM2.03109 24.9051C1.87989 24.9677 1.71781 25 1.5541 25V23C1.45502 23 1.35694 23.0195 1.26545 23.0574L2.03109 24.9051ZM1.5541 25C1.39038 25 1.2283 24.9677 1.0771 24.9051L1.84275 23.0574C1.75126 23.0195 1.65318 23 1.5541 23V25ZM1.0771 24.9051C0.925884 24.8424 0.788492 24.7506 0.672781 24.6348L2.08742 23.221C2.0174 23.1509 1.93426 23.0954 1.84275 23.0574L1.0771 24.9051ZM0.673803 24.6358L-0.63419 23.3308L0.7784 21.915L2.08639 23.22L0.673803 24.6358ZM-0.63479 23.3302C-0.750555 23.2145 -0.842409 23.0771 -0.905081 22.9259L0.942564 22.1603C0.904634 22.0687 0.849049 21.9856 0.779001 21.9156L-0.63479 23.3302ZM-0.905081 22.9259C-0.967737 22.7747 -1 22.6126 -1 22.4489H1C1 22.3498 0.980476 22.2517 0.942564 22.1603L-0.905081 22.9259ZM-1 22.4489C-1 22.2852 -0.967733 22.1231 -0.905081 21.9719L0.942564 22.7376C0.980473 22.6461 1 22.548 1 22.4489H-1ZM-0.905081 21.9719C-0.842417 21.8207 -0.75057 21.6833 -0.63479 21.5676L0.779001 22.9822C0.849064 22.9122 0.904644 22.8291 0.942564 22.7376L-0.905081 21.9719ZM10.9543 13.044C12.0395 14.1266 13.4718 14.7199 15 14.7199V16.7199C12.9403 16.7199 11.0006 15.9153 9.54179 14.4599L10.9543 13.044ZM15 14.7199C16.5283 14.7199 17.9606 14.1266 19.0457 13.044L20.4583 14.4599C18.9995 15.9153 17.0597 16.7199 15 16.7199V14.7199ZM19.0441 13.0457C20.1267 11.9605 20.72 10.5282 20.72 8.99996H22.72C22.72 11.0597 21.9153 12.9994 20.46 14.4582L19.0441 13.0457ZM20.72 8.99996C20.72 7.471 20.1262 6.03642 19.0449 4.95509L20.4591 3.54087C21.9158 4.99753 22.72 6.94093 22.72 8.99996H20.72ZM19.0457 4.95592C17.9606 3.87331 16.5283 3.27999 15 3.27999V1.27999C17.0597 1.27999 18.9995 2.08466 20.4583 3.54004L19.0457 4.95592ZM15 3.27999C13.4701 3.27999 12.0363 3.87144 10.956 4.95425L9.54012 3.54171C10.9979 2.08053 12.942 1.27999 15 1.27999V3.27999ZM10.956 4.95425C9.87339 6.03942 9.28007 7.47168 9.28007 8.99996H7.28007C7.28007 6.94025 8.08474 5.00053 9.54012 3.54171L10.956 4.95425ZM9.28007 8.99996C9.28007 10.5289 9.87384 11.9635 10.9552 13.0448L9.54095 14.459C8.08429 13.0024 7.28007 11.059 7.28007 8.99996H9.28007Z" fill="white" mask="url(#path-1-inside-1_7369_5614)"/>
</svg>
