<svg width="1443" height="266" viewBox="0 0 1443 266" fill="none" xmlns="http://www.w3.org/2000/svg">
<mask id="mask0_1389_3220" style="mask-type:alpha" maskUnits="userSpaceOnUse" x="-8" y="-8" width="1471" height="282">
<path d="M255.503 17V4.5H243.003H76.0459C62.7682 4.5 50.4455 8.16855 39.3801 15.4435C28.5848 22.4967 20.0679 32.0533 13.8162 43.813L13.807 43.8302L13.7979 43.8474C7.5417 55.7046 4.5 68.7318 4.5 82.6848C4.5 96.6377 7.5417 109.665 13.7979 121.522L13.8201 121.564L13.8426 121.606C20.0963 133.243 28.5898 142.75 39.3101 149.88L39.3796 149.926L39.4498 149.971C50.5126 157.117 62.8104 160.708 76.0459 160.708H179.158C182.424 160.708 185.092 161.798 187.816 164.887L187.895 164.978L187.977 165.067C190.781 168.126 192.254 171.746 192.254 176.682C192.254 181.619 190.777 185.343 187.896 188.549C185.201 191.547 182.513 192.656 179.158 192.656H18.8906H6.39063V205.156V249V261.5H18.8906H180.613C194.947 261.5 208.21 257.567 220.081 249.721L220.097 249.711L220.113 249.7C231.792 241.931 241.026 231.613 247.776 218.972C254.64 206.118 257.976 191.936 257.976 176.682C257.976 161.527 254.636 147.41 247.789 134.577C241.042 121.828 231.794 111.475 220.059 103.79C208.193 95.9541 194.938 92.0258 180.613 92.0258H77.3548C75.8057 92.0258 74.4625 91.6016 72.7827 89.8013C71.0927 87.8977 70.2213 85.7474 70.2213 82.6848C70.2213 79.5927 71.1054 77.549 72.7287 75.7882L72.7821 75.7303L72.8348 75.6718C74.5759 73.7348 75.9035 73.3438 77.3548 73.3438H243.003H255.503V60.8438V17ZM304.795 4.5H292.295V17V196.42C292.295 213.792 297.931 229.19 309.272 241.938L309.315 241.987L309.359 242.035C320.861 254.697 335.294 261.5 352.061 261.5H530.944H543.444V249V205.156V192.656H530.944H361.369C360.676 192.656 360.217 192.568 359.401 191.711C358.504 190.687 358.016 189.562 358.016 187.683V160.708H530.944H543.444V148.208V104.526V92.0258H530.944H358.016V73.3438H530.944H543.444V60.8438V17V4.5H530.944H304.795ZM633.312 261.5H645.812V249V114.792L767.349 257.117L771.091 261.5H776.854H818.594H831.094V249V17V4.5H818.594H777.872H765.372V17V151.182L643.985 8.88744L640.242 4.5H634.475H592.59H580.09V17V249V261.5H592.59H633.312ZM921.107 261.5H933.607V249V114.792L1055.14 257.117L1058.89 261.5H1064.65H1106.39H1118.89V249V17V4.5H1106.39H1065.67H1053.17V17V151.182L931.78 8.88744L928.037 4.5H922.27H880.385H867.885V17V249V261.5H880.385H921.107ZM1208.9 261.5H1221.4V249V114.792L1342.94 257.117L1346.68 261.5H1352.44H1408H1435.1L1417.51 240.887L1219.57 8.88692L1215.83 4.5H1210.07H1168.18H1155.68V17V249V261.5H1168.18H1208.9Z" fill="white" stroke="white" stroke-width="25"/>
</mask>
<g mask="url(#mask0_1389_3220)">
<rect x="0.967285" y="0.0834961" width="1441.95" height="265.483" fill="white"/>
</g>
</svg>
