<svg xmlns="http://www.w3.org/2000/svg" width="40" height="40" viewBox="0 0 40 40" fill="none">
  <path fill-rule="evenodd" clip-rule="evenodd" d="M7 0C3.13401 0 0 3.13401 0 7V33C0 36.866 3.13401 40 7 40H33C36.866 40 40 36.866 40 33V7C40 3.13401 36.866 0 33 0H7ZM26.6642 6.375C26.6638 7.88792 27.2131 9.34945 28.21 10.4875C30.1934 12.7771 32.935 12.6458 32.935 12.6458V17.1521C30.6854 17.1559 28.4915 16.4519 26.6642 15.1396V24.3125C26.6642 28.9062 22.9454 32.625 18.3663 32.625C14.0934 32.625 10.0684 29.1687 10.0684 24.3125C10.0684 19.325 14.4725 15.4167 19.5038 16.0875V20.6958C17.01 19.9229 14.5892 21.8042 14.5892 24.3125C14.5892 26.4125 16.31 28.1042 18.3809 28.1042C19.3601 28.104 20.301 27.7239 21.0055 27.0439C21.71 26.3638 22.1232 25.4369 22.1579 24.4583V6.375H26.6642Z" fill="white"/>
</svg>