<svg width="36" height="36" viewBox="0 0 36 36" fill="none" xmlns="http://www.w3.org/2000/svg">
<g clip-path="url(#clip0_1424_3781)">
<path fill-rule="evenodd" clip-rule="evenodd" d="M0.857422 11.8288C0.857422 7.98849 0.857422 6.06832 1.60481 4.60149C2.26223 3.31123 3.31123 2.26222 4.60149 1.60481C6.06832 0.857422 7.98849 0.857422 11.8288 0.857422H24.1717C28.012 0.857422 29.9322 0.857422 31.3991 1.60481C32.6893 2.26222 33.7383 3.31123 34.3957 4.60149C35.1431 6.06832 35.1431 7.98849 35.1431 11.8288V24.1717C35.1431 28.012 35.1431 29.9322 34.3957 31.3991C33.7383 32.6893 32.6893 33.7383 31.3991 34.3957C29.9322 35.1431 28.012 35.1431 24.1717 35.1431H11.8288C7.98849 35.1431 6.06832 35.1431 4.60149 34.3957C3.31123 33.7383 2.26223 32.6893 1.60481 31.3991C0.857422 29.9322 0.857422 28.012 0.857422 24.1717V11.8288ZM26.8691 13.8892C26.8691 20.1718 22.2675 27.4288 13.8579 27.4288C11.2807 27.4288 8.87286 26.6401 6.85742 25.3036C7.21413 25.3501 7.57977 25.3686 7.94539 25.3686C10.0857 25.3686 12.0565 24.6076 13.6261 23.3271C11.6285 23.2899 9.93408 21.9164 9.35442 20.0233C9.63088 20.079 9.91624 20.1068 10.2105 20.1068C10.6297 20.1068 11.031 20.0512 11.4144 19.9398C9.32767 19.5037 7.74921 17.5734 7.74921 15.2719V15.207C8.36454 15.5596 9.06906 15.7731 9.81815 15.8009C8.59641 14.9471 7.78488 13.4901 7.78488 11.8383C7.78488 10.966 8.00783 10.1493 8.40021 9.44404C10.6564 12.3209 14.0274 14.2233 17.8264 14.4182C17.755 14.0655 17.7104 13.7036 17.7104 13.3324C17.7104 10.7061 19.7615 8.57171 22.2853 8.57171C23.5962 8.57171 24.7823 9.14707 25.6206 10.0751C26.6639 9.86164 27.6448 9.47188 28.5279 8.92435C28.18 10.038 27.4576 10.9753 26.5124 11.5599C27.4398 11.4393 28.3227 11.1887 29.1431 10.8082C28.5279 11.764 27.752 12.6085 26.8602 13.2767C26.8691 13.4809 26.8691 13.685 26.8691 13.8892Z" fill="white"/>
</g>
<defs>
<clipPath id="clip0_1424_3781">
<rect width="36" height="36" fill="white"/>
</clipPath>
</defs>
</svg>
