<svg width="36" height="36" viewBox="0 0 36 36" fill="none" xmlns="http://www.w3.org/2000/svg">
<g clip-path="url(#clip0_1424_3780)">
<path fill-rule="evenodd" clip-rule="evenodd" d="M1.60481 4.60149C0.857422 6.06832 0.857422 7.98849 0.857422 11.8288V24.1717C0.857422 28.012 0.857422 29.9322 1.60481 31.3991C2.26223 32.6893 3.31123 33.7383 4.60149 34.3957C6.06832 35.1431 7.98849 35.1431 11.8288 35.1431H24.1717C28.012 35.1431 29.9322 35.1431 31.3991 34.3957C32.6893 33.7383 33.7383 32.6893 34.3957 31.3991C35.1431 29.9322 35.1431 28.012 35.1431 24.1717V11.8288C35.1431 7.98849 35.1431 6.06832 34.3957 4.60149C33.7383 3.31123 32.6893 2.26222 31.3991 1.60481C29.9322 0.857422 28.012 0.857422 24.1717 0.857422H11.8288C7.98849 0.857422 6.06832 0.857422 4.60149 1.60481C3.31123 2.26222 2.26223 3.31123 1.60481 4.60149ZM24.4191 17.299L14.1406 11.26C13.5668 10.9229 12.8574 11.3555 12.8574 12.0425V23.9581C12.8574 24.6406 13.5582 25.0736 14.1319 24.7456L24.4103 18.8691C25.0024 18.5305 25.0074 17.6447 24.4191 17.299Z" fill="white"/>
</g>
<defs>
<clipPath id="clip0_1424_3780">
<rect width="36" height="36" fill="white"/>
</clipPath>
</defs>
</svg>
